<svg width="48" height="48" viewBox="0 0 48 48" fill="none" xmlns="http://www.w3.org/2000/svg">
<path d="M40 16H34.38C33.48 14.44 32.24 13.1 30.74 12.08L34 8.82L31.18 6L26.84 10.34C25.92 10.12 24.98 10 24 10C23.02 10 22.08 10.12 21.18 10.34L16.82 6L14 8.82L17.24 12.08C15.76 13.1 14.52 14.44 13.62 16H8V20H12.18C12.08 20.66 12 21.32 12 22V24H8V28H12V30C12 30.68 12.08 31.34 12.18 32H8V36H13.62C15.7 39.58 19.56 42 24 42C28.44 42 32.3 39.58 34.38 36H40V32H35.82C35.92 31.34 36 30.68 36 30V28H40V24H36V22C36 21.32 35.92 20.66 35.82 20H40V16ZM28 32H20V28H28V32ZM28 24H20V20H28V24Z" fill="#F24242"/>
</svg>
